<svg width="18" height="19" viewBox="0 0 18 19" fill="none" xmlns="http://www.w3.org/2000/svg">
<path d="M8.4375 0.945312L8.16406 1.21875C7.96875 1.41406 7.96875 1.6875 8.16406 1.88281L15.1172 8.83594H0.46875C0.195312 8.83594 0 9.07031 0 9.30469V9.69531C0 9.96875 0.195312 10.1641 0.46875 10.1641H15.1172L8.16406 17.1562C7.96875 17.3516 7.96875 17.625 8.16406 17.8203L8.4375 18.0938C8.63281 18.2891 8.90625 18.2891 9.10156 18.0938L17.3438 9.85156C17.5391 9.65625 17.5391 9.38281 17.3438 9.1875L9.10156 0.945312C8.90625 0.75 8.63281 0.75 8.4375 0.945312Z" fill="#39435B"/>
</svg>
