<svg width="21" height="20" viewBox="0 0 21 20" fill="none" xmlns="http://www.w3.org/2000/svg">
<path d="M20.375 3.125C20.375 2.8125 20.0625 2.5 19.75 2.5H2.25004C1.89848 2.5 1.62504 2.8125 1.62504 3.125V3.75H20.375V3.125ZM19.75 0.625C19.75 0.3125 19.4375 0 19.125 0H2.87504C2.52348 0 2.25004 0.3125 2.25004 0.625V1.25H19.75V0.625ZM19.75 5H2.25004C1.50785 5 0.921917 5.70312 1.00004 6.52344L2.01567 18.7891C2.05473 19.4922 2.6016 20 3.26567 20H18.6954C19.3594 20 19.9063 19.4922 19.9454 18.7891L20.961 6.52344C21.0391 5.70312 20.4532 5 19.75 5ZM18.6954 18.6719C18.6954 18.75 18.6954 18.75 18.6954 18.75L3.30473 18.7891C3.26567 18.75 3.26567 18.7109 3.26567 18.6719L2.25004 6.40625C2.21098 6.32812 2.25004 6.28906 2.25004 6.25H19.711C19.711 6.28906 19.711 6.32812 19.711 6.36719V6.40625L18.6954 18.6719Z" fill="#5F596E"/>
</svg>
