<svg width="21" height="20" viewBox="0 0 21 20" fill="none" xmlns="http://www.w3.org/2000/svg">
<path d="M20.375 3.125C20.375 2.8125 20.0625 2.5 19.75 2.5H2.24998C1.89842 2.5 1.62498 2.8125 1.62498 3.125V3.75H20.375V3.125ZM19.75 0.625C19.75 0.3125 19.4375 0 19.125 0H2.87498C2.52342 0 2.24998 0.3125 2.24998 0.625V1.25H19.75V0.625ZM19.75 5H2.24998C1.50779 5 0.921856 5.70312 0.999981 6.52344L2.01561 18.7891C2.05467 19.4922 2.60154 20 3.26561 20H18.6953C19.3594 20 19.9062 19.4922 19.9453 18.7891L20.9609 6.52344C21.039 5.70312 20.4531 5 19.75 5ZM18.6953 18.6719C18.6953 18.75 18.6953 18.75 18.6953 18.75L3.30467 18.7891C3.26561 18.75 3.26561 18.7109 3.26561 18.6719L2.24998 6.40625C2.21092 6.32812 2.24998 6.28906 2.24998 6.25H19.7109C19.7109 6.28906 19.7109 6.32812 19.7109 6.36719V6.40625L18.6953 18.6719Z" fill="#5F596E"/>
</svg>
